<?xml version="1.0" standalone="no"?>
<!DOCTYPE svg PUBLIC "-//W3C//DTD SVG 20010904//EN"
 "http://www.w3.org/TR/2001/REC-SVG-20010904/DTD/svg10.dtd">
<svg version="1.0" xmlns="http://www.w3.org/2000/svg"
 width="498.000000pt" height="326.000000pt" viewBox="0 0 498.000000 326.000000"
 preserveAspectRatio="xMidYMid meet">
<metadata>
Created by potrace 1.16, written by Peter Selinger 2001-2019
</metadata>
<g transform="translate(0.000000,326.000000) scale(0.100000,-0.100000)"
fill="#000000" stroke="none">
<path d="M2814 2735 c-2 -5 -5 -39 -6 -75 l-3 -65 -77 -3 -78 -3 0 -79 0 -80
-80 0 -79 0 -3 -77 -3 -78 -77 -3 -77 -3 -3 -77 -3 -77 -77 -3 -77 -3 -3 -77
-3 -77 -157 -3 -158 -3 0 -74 0 -74 -77 -3 -78 -3 -3 -77 -3 -77 -77 -3 -77
-3 -5 -235 -5 -235 -75 0 -75 0 -3 78 c-2 52 -7 77 -15 77 -7 0 -183 0 -392 0
l-380 0 -3 -67 c-2 -37 -8 -73 -14 -81 -8 -9 -31 -13 -75 -11 -35 1 -65 0 -68
-3 -4 -4 -9 -399 -6 -446 1 -10 51 -12 234 -10 l232 3 2 65 c1 36 2 71 2 78 1
10 52 12 239 10 l237 -3 3 -77 3 -78 237 -2 237 -3 5 -75 5 -75 157 -3 157 -3
3 -77 3 -77 1029 0 1029 0 1 75 1 75 80 5 80 5 3 78 3 77 74 0 c43 0 75 4 75
10 3 165 -1 604 -5 608 -3 3 -36 6 -73 6 l-67 1 -5 630 -5 630 -80 5 -80 5 -1
67 c-1 36 -4 70 -7 75 -6 10 -119 9 -135 -1 -7 -4 -12 -34 -12 -76 l0 -69 -77
-3 -78 -3 -2 -65 c-1 -36 -2 -70 -2 -77 -1 -8 -27 -13 -78 -15 l-78 -3 -3 -77
-3 -78 -74 0 -75 0 0 -75 c0 -91 9 -87 -185 -83 l-140 3 -3 77 -3 77 -77 3
-77 3 -5 155 -5 155 -77 3 -78 3 0 74 c0 53 -4 75 -12 76 -67 5 -131 2 -134
-6z m144 -307 c8 -8 12 -58 12 -159 0 -169 4 -163 -98 -158 l-57 3 -5 -80 -5
-79 -160 0 -160 0 0 80 0 80 77 3 77 3 3 77 3 77 78 3 77 3 0 73 c0 40 3 76 7
79 11 12 138 8 151 -5z m1277 -233 l0 -240 -75 0 -75 0 -5 75 -5 75 -75 5 -75
5 -3 82 -3 82 78 3 78 3 3 65 c4 94 1 91 84 88 l73 -3 0 -240z m-1117 -1184
c9 -5 12 -29 10 -82 l-3 -74 -240 0 -240 0 -3 69 c-2 38 -1 75 2 83 4 10 51
13 233 13 125 0 234 -4 241 -9z m1120 -78 l3 -83 -241 0 -240 0 0 78 c0 43 3
82 7 86 4 3 110 5 237 4 l231 -3 3 -82z"/>
</g>
</svg>
